<?xml version="1.0" standalone="no"?>
<!DOCTYPE svg PUBLIC "-//W3C//DTD SVG 20010904//EN"
 "http://www.w3.org/TR/2001/REC-SVG-20010904/DTD/svg10.dtd">
<svg version="1.0" xmlns="http://www.w3.org/2000/svg"
 width="900.000000pt" height="900.000000pt" viewBox="0 0 900.000000 900.000000"
 preserveAspectRatio="xMidYMid meet">
<metadata>
Created by potrace 1.14, written by Peter Selinger 2001-2017
</metadata>
<g transform="translate(0.000000,900.000000) scale(0.100000,-0.100000)"
fill="#000000" stroke="none">
<path d="M1961 5843 c1 -16 -2 -341 -6 -723 -4 -382 -8 -855 -9 -1050 l-1
-354 110 -1 110 0 1 55 c1 30 5 334 8 675 4 341 9 801 12 1023 l4 402 -115 0
-115 0 1 -27z"/>
<path d="M8444 5597 c-8 -5 -12 -11 -10 -15 2 -4 7 -86 11 -182 3 -96 8 -213
10 -260 5 -111 15 -344 20 -495 6 -182 15 -349 19 -352 9 -9 318 -8 323 0 3 6
7 33 9 61 5 97 15 271 19 321 2 28 6 104 9 170 4 66 8 149 11 185 3 36 7 106
10 155 8 138 16 273 20 343 3 44 1 64 -8 67 -23 8 -429 10 -443 2z"/>
<path d="M655 5254 c-112 -20 -165 -38 -285 -101 -156 -80 -149 -73 -117 -136
15 -28 35 -66 45 -84 l19 -32 40 27 c37 24 155 83 208 102 102 38 283 49 382
23 176 -46 260 -160 261 -356 l0 -75 -321 1 c-298 0 -328 -2 -401 -22 -163
-44 -262 -117 -319 -238 -29 -62 -32 -76 -32 -168 0 -115 16 -175 71 -260 59
-93 165 -164 296 -198 75 -20 272 -15 363 8 117 29 249 105 309 176 14 16 26
29 28 29 2 0 3 -46 3 -102 -1 -57 0 -107 2 -113 3 -8 160 -13 208 -6 11 1 13
105 14 716 1 198 -1 377 -4 397 -26 185 -153 331 -340 391 -78 25 -101 28
-230 32 -72 1 -152 -3 -200 -11z m362 -814 l192 -2 -3 -102 c-2 -93 -5 -107
-36 -164 -83 -156 -257 -251 -461 -252 -229 0 -371 110 -364 284 6 167 150
248 425 239 30 -1 141 -2 247 -3z"/>
<path d="M5165 5248 c-166 -37 -249 -70 -351 -139 -164 -111 -282 -311 -309
-524 -7 -54 -8 -197 -1 -230 2 -11 6 -41 10 -67 15 -100 72 -228 144 -321 142
-185 384 -295 662 -301 449 -11 759 198 861 579 30 112 30 326 1 437 -76 285
-297 491 -593 554 -91 19 -128 22 -248 21 -75 0 -154 -4 -176 -9z m252 -392
c82 -10 173 -73 218 -151 48 -82 63 -144 60 -251 -3 -116 -7 -139 -42 -211
-115 -245 -466 -254 -596 -16 -104 192 -50 473 110 580 52 35 160 65 198 57 6
-2 29 -5 52 -8z"/>
<path d="M2769 5230 c-3 -15 -20 -1414 -23 -1915 l-1 -170 113 -2 112 -2 1 62
c0 34 2 186 4 337 2 151 4 322 4 380 l1 105 36 -54 c70 -103 175 -188 293
-234 155 -62 390 -60 554 4 280 110 451 397 442 738 -3 114 -9 153 -36 246
-104 353 -419 548 -812 502 -167 -19 -347 -132 -436 -273 l-31 -48 0 165 0
164 -110 0 c-61 1 -110 -2 -111 -5z m951 -229 c180 -62 314 -224 348 -421 8
-45 8 -174 0 -225 -34 -221 -202 -402 -411 -445 -112 -23 -246 -12 -337 27
-82 34 -107 51 -170 113 -110 107 -164 243 -163 415 1 266 150 476 388 547 86
25 256 20 345 -11z"/>
<path d="M7312 5219 c-95 -24 -177 -68 -251 -136 l-61 -54 3 99 2 100 -252 1
-253 2 -1 -148 c0 -81 -2 -269 -4 -418 -2 -148 -6 -551 -10 -895 -3 -343 -8
-626 -10 -628 -2 -3 0 -12 5 -21 8 -15 37 -17 254 -19 l246 -3 1 63 c0 35 2
167 4 293 2 127 4 270 4 319 l1 89 48 -48 c61 -61 113 -97 187 -128 77 -32
109 -38 230 -42 379 -14 654 216 725 604 29 160 11 406 -39 526 -100 243 -269
391 -506 446 -88 20 -241 19 -323 -2z m171 -397 c155 -69 235 -265 196 -478
-22 -121 -82 -207 -184 -265 -57 -32 -65 -34 -155 -34 -83 1 -101 4 -145 27
-129 68 -198 199 -198 379 1 133 43 240 127 317 95 88 235 109 359 54z"/>
<path d="M8532 4114 c-93 -46 -139 -127 -140 -240 0 -177 146 -289 327 -251
44 9 101 43 129 77 75 91 79 249 9 343 -71 94 -215 126 -325 71z"/>
</g>
</svg>
